<?xml version="1.0" standalone="no"?>
<!DOCTYPE svg PUBLIC "-//W3C//DTD SVG 20010904//EN"
 "http://www.w3.org/TR/2001/REC-SVG-20010904/DTD/svg10.dtd">
<svg version="1.0" xmlns="http://www.w3.org/2000/svg"
 width="640.000000pt" height="640.000000pt" viewBox="0 0 640.000000 640.000000"
 preserveAspectRatio="xMidYMid meet">
<metadata>
Created by potrace 1.14, written by Peter Selinger 2001-2017
</metadata>
<g transform="translate(0.000000,640.000000) scale(0.100000,-0.100000)"
fill="#000000" stroke="none">
<path d="M1598 6393 c881 -2 2323 -2 3205 0 881 1 160 2 -1603 2 -1763 0
-2484 -1 -1602 -2z"/>
<path d="M2229 5389 c-15 -28 -32 -228 -26 -305 l4 -61 -34 -17 c-43 -20 -53
-45 -26 -65 19 -15 18 -17 -34 -54 -29 -21 -53 -44 -53 -52 0 -20 33 -35 65
-29 l27 5 -21 -27 c-12 -15 -21 -32 -21 -39 0 -6 -10 -20 -21 -31 -12 -10 -45
-46 -72 -79 -28 -33 -55 -59 -61 -57 -6 2 -8 1 -4 -3 4 -4 -15 -39 -41 -79
-145 -215 -207 -409 -210 -656 -1 -76 2 -110 12 -124 13 -18 15 -12 22 60 l8
79 17 -102 c10 -56 22 -114 27 -130 8 -21 5 -44 -9 -93 -31 -105 -34 -110 -68
-110 -20 0 -30 -5 -30 -15 0 -8 6 -15 13 -15 9 0 9 -2 -1 -9 -8 -4 -13 -10
-11 -12 1 -2 -9 -24 -22 -49 -13 -25 -23 -47 -24 -50 0 -5 -13 -37 -46 -115
-84 -198 -197 -536 -191 -571 1 -6 -9 -17 -23 -24 -14 -7 -23 -16 -20 -18 3
-3 -2 -16 -10 -28 -14 -21 -13 -24 6 -34 11 -6 82 -14 157 -18 l137 -7 0 -320
c1 -320 10 -457 41 -572 19 -70 18 -122 -5 -169 -10 -21 -22 -54 -26 -72 -6
-30 -9 -32 -48 -32 -104 -1 -363 -11 -374 -15 -26 -9 -12 -25 22 -25 24 0 35
-5 35 -15 0 -7 7 -18 16 -23 9 -5 15 -13 15 -18 0 -5 38 -7 87 -6 83 4 87 3
97 -20 9 -21 15 -23 80 -20 39 2 133 10 210 18 240 24 331 17 450 -36 79 -35
138 -39 157 -11 12 17 21 19 69 13 29 -4 105 -5 166 -2 97 4 112 3 110 -10 -2
-13 44 -15 348 -18 193 -2 378 -4 412 -5 74 -2 86 15 16 24 l-48 6 53 1 c29 1
62 7 73 12 10 6 76 10 146 10 71 -1 142 -1 158 -1 200 2 317 -2 412 -14 151
-20 192 -19 217 3 12 11 73 34 136 52 63 18 120 37 127 42 6 5 64 8 128 7 105
-2 119 0 131 16 18 25 18 39 -3 64 -14 17 -33 22 -93 27 -41 3 -94 10 -117 16
l-42 10 -3 542 c-2 297 -7 548 -11 557 -7 14 10 17 148 23 86 4 166 11 179 16
13 4 29 22 35 39 12 28 9 37 -43 140 -31 61 -54 111 -50 111 4 0 0 8 -9 18 -8
9 -52 89 -98 177 -97 190 -222 405 -248 429 -17 16 -40 17 -199 14 l-180 -3
-5 60 c-3 33 -17 114 -32 180 -25 113 -27 128 -19 265 16 282 -1 389 -89 568
-29 60 -30 66 -18 105 65 216 89 317 97 406 l7 81 -29 11 c-52 20 -247 -22
-379 -81 -11 -4 -57 -24 -101 -43 l-82 -34 -35 19 c-51 26 -175 65 -302 95
-98 23 -133 26 -315 27 l-206 2 -64 54 c-36 29 -64 58 -62 63 1 4 -2 6 -8 2
-5 -3 -34 10 -63 29 -86 57 -331 166 -373 166 -2 0 -8 -10 -15 -21z"/>
</g>
</svg>
